<svg width="301" height="263" viewBox="0 0 301 263" fill="none" xmlns="http://www.w3.org/2000/svg">
    <path d="M15.7983 19.965L15.8265 19.9067L15.8541 19.8481C17.2573 16.8763 20.2064 15 23.5153 15H277.514C280.823 15 283.772 16.8763 285.175 19.8481C286.59 22.8441 286.161 26.3374 284.077 28.8908C284.075 28.8931 284.073 28.8955 284.071 28.8978L176.543 160.097L173.144 164.243V169.605V244.222C173.144 245.67 172.337 246.948 171.086 247.567C169.658 248.273 168.142 248.079 167.051 247.259L167.042 247.252L167.032 247.244L129.402 219.065L129.367 219.038L129.331 219.011C128.462 218.369 127.885 217.302 127.885 216.042V169.605V164.243L124.486 160.096L16.9083 28.8499C16.906 28.847 16.9037 28.8442 16.9014 28.8414C14.8277 26.2945 14.4375 22.784 15.7983 19.965Z" stroke="black" stroke-width="30"/>
</svg>
