<svg width="15" height="15" viewBox="0 0 512 448" fill="none" xmlns="http://www.w3.org/2000/svg">
<path d="M17.4119 29.4131L17.44 29.3548L17.4675 29.2963C21.5958 20.5393 30.3166 15 39.9997 15H472C481.683 15 490.404 20.5393 494.532 29.2963C498.674 38.0819 497.415 48.3985 491.285 55.9083C491.284 55.9095 491.283 55.9108 491.282 55.912L308.391 279.4L305 283.545V288.9V416C305 422.457 301.379 428.316 295.641 431.159C289.728 434.088 282.905 433.442 277.819 429.615L277.81 429.607L277.8 429.6L213.8 381.6L213.764 381.573L213.728 381.547C209.521 378.43 207 373.44 207 368V288.9V283.544L203.608 279.4L20.6264 55.8227C20.6236 55.8193 20.6209 55.8159 20.6181 55.8126C14.5425 48.351 13.2833 37.9783 17.4119 29.4131Z" stroke="black" stroke-width="30"/>
</svg>
